<?xml version="1.0" encoding="UTF-8"?> <svg xmlns="http://www.w3.org/2000/svg" viewBox="0 0 130.0408935546875 30.58416748046875" fill="none"><path d="M51.92874829781032 9.097346418794423V10.234517841126777C50.837003828696695 9.330471552345436 49.432761857221315 8.80451728958452 47.85479922948094 8.80451728958452C44.06813820046335 8.80451728958452 41.029025110402166 12.014181133131148 41.029025110402166 16.187595261118005C41.029025110402166 18.11509582999846 41.7169189734285 19.86350937176666 42.80566825881343 21.148493111110696C44.03968395504064 22.609768372753532 45.98979816107283 23.54224394709318 48.05372934879588 23.54224394709318C49.46096650399997 23.54224394709318 50.780095337851265 23.10442296554946 51.926002712725676 22.112243395550923V23.249414817883277H55.51073843869962V9.097346418794423H51.926002712725676H51.92874829781032ZM51.7837314856121 18.288516967890587C51.06738337716306 19.33755510900574 49.83336768093585 20.03975097433665 48.426130525731764 20.03975097433665C46.333745092586 20.03975097433665 44.756032063489684 18.405079534666093 44.756032063489684 16.187595261118005C44.756032063489684 14.14637755000431 46.16052363360912 12.30701026234105 48.34101738810768 12.30701026234105C49.77371360500577 12.30701026234105 51.00772930123298 13.006360703129685 51.7837314856121 14.058244268787112V18.29136239243286V18.288516967890587ZM71.06722352831468 20.36100938910486C69.43260200837295 22.57849366265295 67.36567563692118 23.54224394709318 64.75587221464131 23.54224394709318C60.454538781574264 23.54224394709318 57.29911272338164 20.275721532429934 57.29911272338164 16.190440685660274C57.29911272338164 12.105159838890618 60.53990151784242 8.80451728958452 64.78432646006402 8.80451728958452C67.1924541779443 8.80451728958452 69.34449368702015 9.941688711916873 70.63516827544873 11.636089107110724L67.99691060774614 13.998540273128224C67.25210825387438 13.006360703129685 66.13190953933803 12.30701026234105 64.78432646006402 12.30701026234105C62.63528213471689 12.30701026234105 61.028865261553804 14.026969558686531 61.028865261553804 16.190440685660274C61.028865261553804 18.353911812634017 62.60682788929417 20.03975097433665 64.87243478141681 20.03975097433665C66.39348891831176 20.03975097433665 67.5988007704722 19.107275399997 68.20158149587445 18.17195440111508L71.0702187120434 20.36100938910486H71.06722352831468ZM82.1603856648685 23.25226024242555C81.6714219211571 23.42568138031767 80.55421839034946 23.54224394709318 79.83762068325635 23.54224394709318C77.60021843791236 23.54224394709318 75.96559691797061 22.783189510645656 75.0188692610552 21.501026235979484C74.30252115260616 20.537275951539257 73.98702846651571 19.283541962431396 73.98702846651571 17.26790811233374V12.30701026234105H71.65852271609023V9.097346418794423H73.98702846651571V5.15705742435858H77.71403541960322V9.097346418794423H82.1603856648685V12.30701026234105H77.71403541960322V17.70572909387746C77.71403541960322 18.58134609710049 77.85905223180144 19.107275399997 78.17454491789191 19.48539238588183C78.54694609482777 19.923213367425546 79.14972682023003 20.184742826670462 80.06800023172272 20.184742826670462C80.61387246627953 20.184742826670462 81.33022057472859 20.096634505317674 81.58905436861765 20.036930509658784L82.1603856648685 23.249414817883277V23.25226024242555ZM84.74173484172564 9.097346418794423H88.47173697854187V23.25226024242555H84.74173484172564V9.097346418794423ZM105.46940463895302 9.097346418794423L99.07294018765556 23.25226024242555H96.49159101079842L90.0948769608569 9.097346418794423H93.96715032478669L97.78226559922699 17.73415837943577L101.59463528858265 9.097346418794423H105.46940463895302Z" fill="#C4003E"></path><path d="M32.65374260900574 12.599839391550955C32.65374260900574 12.72775869663114 32.551407164941594 12.830119100559696 32.42361265918343 12.830119100559696C32.29556855478121 12.830119100559696 32.19323311071707 12.72775869663114 32.19323311071707 12.599839391550955C32.19323311071707 12.47189512660636 32.29556855478121 12.369559682542212 32.42361265918343 12.369559682542212C32.551407164941594 12.369559682542212 32.65374260900574 12.47189512660636 32.65374260900574 12.599839391550955ZM31.87474524089791 7.127214401508705C31.74695073513975 7.127214401508705 31.644615291075603 7.229549845572854 31.644615291075603 7.357494110517447C31.644615291075603 7.485413415597633 31.74695073513975 7.587773819526189 31.87474524089791 7.587773819526189C32.00278934530013 7.587773819526189 32.10512478936428 7.485413415597633 32.10512478936428 7.357494110517447C32.10512478936428 7.229549845572854 32.00278934530013 7.127214401508705 31.87474524089791 7.127214401508705ZM11.712840690158835 3.7754041301705326C11.712840690158835 3.6474598652259402 11.610505246094688 3.5451244211617907 11.482560981150094 3.5451244211617907C11.354641676069907 3.5451244211617907 11.252281272141351 3.6474598652259402 11.252281272141351 3.7754041301705326C11.252281272141351 3.90332343525072 11.354641676069907 4.005683839179275 11.482560981150094 4.005683839179275C11.610505246094688 4.005683839179275 11.712840690158835 3.90332343525072 11.712840690158835 3.7754041301705326ZM23.26933278967918 5.393027982451865C23.397252094759367 5.393027982451865 23.49961249868792 5.290692538387716 23.49961249868792 5.162748273443123C23.49961249868792 5.034828968362937 23.397252094759367 4.932468564434381 23.26933278967918 4.932468564434381C23.141388524734584 4.932468564434381 23.039053080670435 5.034828968362937 23.039053080670435 5.162748273443123C23.039053080670435 5.290692538387716 23.141388524734584 5.393027982451865 23.26933278967918 5.393027982451865ZM14.106591526141322 5.333323986792976C14.106591526141322 5.205404681712789 14.004231122212767 5.1030442777842335 13.876311817132578 5.1030442777842335C13.748367552187986 5.1030442777842335 13.646032108123837 5.205404681712789 13.646032108123837 5.333323986792976C13.646032108123837 5.461268251737568 13.748367552187986 5.563603695801718 13.876311817132578 5.563603695801718C14.004231122212767 5.563603695801718 14.106591526141322 5.461268251737568 14.106591526141322 5.333323986792976ZM31.556506969722815 9.151359565368768C31.68430147548097 9.151359565368768 31.78663691954512 9.049024121304619 31.78663691954512 8.921104816224432C31.78663691954512 8.79316055127984 31.68430147548097 8.69082510721569 31.556506969722815 8.69082510721569C31.428462865320597 8.69082510721569 31.326127421256448 8.79316055127984 31.326127421256448 8.921104816224432C31.326127421256448 9.049024121304619 31.428462865320597 9.151359565368768 31.556506969722815 9.151359565368768ZM27.144351738693615 10.88839140896788C27.144351738693615 12.125077810686516 28.14499270272575 13.125768694447464 29.381504385393548 13.125768694447464C30.618265666705405 13.125768694447464 31.618906630737538 12.125077810686516 31.618906630737538 10.88839140896788C31.618906630737538 9.651729967113647 30.615520081620758 8.651014123488297 29.381504385393548 8.651014123488297C28.1477382878104 8.651014123488297 27.144351738693615 9.651729967113647 27.144351738693615 10.88839140896788ZM28.281523161025973 7.562164998645746C28.281523161025973 8.071071674017439 28.693610522367216 8.483283834680714 29.202542157603318 8.483283834680714C29.711473792839417 8.483283834680714 30.126556337909367 8.071071674017439 30.126556337909367 7.562164998645746C30.126556337909367 7.053283283138458 29.714219377924064 6.641071122475182 29.202542157603318 6.641071122475182C28.690864937282566 6.641071122475182 28.281523161025973 7.053283283138458 28.281523161025973 7.562164998645746ZM28.051143612559606 8.537296981255059C28.051143612559606 8.409377676174874 27.948808168495454 8.307017272246318 27.82076406409324 8.307017272246318C27.692969558335083 8.307017272246318 27.590634114270934 8.409377676174874 27.590634114270934 8.537296981255059C27.590634114270934 8.665241246199654 27.692969558335083 8.767576690263803 27.82076406409324 8.767576690263803C27.948808168495454 8.767576690263803 28.051143612559606 8.665241246199654 28.051143612559606 8.537296981255059ZM27.869186201040666 5.802394718572869C27.87767255493867 6.058258288597648 28.093824980693675 6.2544428228279445 28.346668407125346 6.2459065492011305C28.59976143220107 6.237370275574316 28.80168673524472 6.024163113819203 28.79020519761801 5.768299543794423C28.781718843720007 5.512435973769644 28.568561601693705 5.313430974861482 28.312722991533334 5.324787713166162C28.059629966457607 5.333323986792976 27.860699847142662 5.54653114854809 27.869186201040666 5.802394718572869ZM27.869186201040666 4.542994840244871C27.99723030544288 4.542994840244871 28.09956574950703 4.440634436316316 28.09956574950703 4.312715131236129C28.09956574950703 4.184795826155943 27.99723030544288 4.0824354222273875 27.869186201040666 4.0824354222273875C27.74114209663845 4.0824354222273875 27.638806652574303 4.184795826155943 27.638806652574303 4.312715131236129C27.638806652574303 4.440634436316316 27.74114209663845 4.542994840244871 27.869186201040666 4.542994840244871ZM27.08744324784819 7.491104264682177C27.08744324784819 7.746967834706957 27.294859721061137 7.951663682699661 27.54795274613686 7.951663682699661C27.801045771212586 7.951663682699661 28.008462244425534 7.744122410164684 28.008462244425534 7.491104264682177C28.008462244425534 7.238086119199668 27.801045771212586 7.030544846664692 27.54795274613686 7.030544846664692C27.294859721061137 7.030544846664692 27.08744324784819 7.235240694657397 27.08744324784819 7.491104264682177ZM23.550780220719997 6.163464117068475C23.550780220719997 7.181227548083051 24.37522950191095 8.008522253816277 25.39291805333231 8.008522253816277C26.410781323804507 8.008522253816277 27.237951230215703 7.184072972625322 27.237951230215703 6.163464117068475C27.237951230215703 5.142855261511629 26.413526908889153 4.321251404862943 25.39291805333231 4.321251404862943C24.37238407736868 4.321251404862943 23.550780220719997 5.1457006860539 23.550780220719997 6.163464117068475ZM24.89264749104505 3.51384971106121C25.020516876396425 3.51384971106121 25.122852320460577 3.411514266997061 25.122852320460577 3.283570002052468C25.122852320460577 3.155650696972281 25.020516876396425 3.053290293043726 24.89264749104505 3.053290293043726C24.764703226100462 3.053290293043726 24.66236778203631 3.155650696972281 24.66236778203631 3.283570002052468C24.66236778203631 3.411514266997061 24.764703226100462 3.51384971106121 24.89264749104505 3.51384971106121ZM23.840763925387627 4.599853411361488C24.093782070870134 4.591317137734674 24.292787069778296 4.378109975979561 24.28425079615148 4.122246405954781C24.275714522524666 3.8692282604722736 24.06250736076955 3.6702232615641117 23.809489215287044 3.67873457532652C23.556471069804534 3.687270848953335 23.354620646354103 3.900502970572854 23.36313196011651 4.156341580733228C23.371668233743325 4.412205150758007 23.584900355362844 4.608389684988303 23.840763925387627 4.599853411361488ZM21.1286000991792 3.4200255807594693C21.1286000991792 3.9289322561311626 21.54083721970688 4.341144416794438 22.049718935214166 4.341144416794438C22.558600650721456 4.341144416794438 22.973658235927 3.9289322561311626 22.973658235927 3.4200255807594693C22.973658235927 2.9111438652521815 22.561446075263728 2.498931704588906 22.049718935214166 2.498931704588906C21.537991795164608 2.498931704588906 21.1286000991792 2.9111438652521815 21.1286000991792 3.4200255807594693ZM21.265055677886203 1.114425497899266C21.39299994283079 1.114425497899266 21.495335386894943 1.0120800698893542 21.495335386894943 0.8841482848769643C21.495335386894943 0.7562164998645745 21.39299994283079 0.6538735678411033 21.265055677886203 0.6538735678411033C21.137136372806015 0.6538735678411033 21.034800928741866 0.7562164998645745 21.034800928741866 0.8841482848769643C21.034800928741866 1.0120800698893542 21.137136372806015 1.114425497899266 21.265055677886203 1.114425497899266ZM21.1968403684649 5.063258253921244C21.35034353456113 5.063258253921244 21.472596950421174 4.938159413518924 21.472596950421174 4.787476712100566C21.472596950421174 4.636818970546613 21.35034353456113 4.511720130144291 21.1968403684649 4.511720130144291C21.04331224250427 4.511720130144291 20.91823836196636 4.6339735460043405 20.91823836196636 4.787476712100566C20.91823836196636 4.941004838061195 21.04331224250427 5.063258253921244 21.1968403684649 5.063258253921244ZM28.517393879661633 18.081000655220016C28.389349775259415 18.081000655220016 28.287014331195266 18.183336099284165 28.287014331195266 18.311280364228757C28.287014331195266 18.439199669308945 28.389349775259415 18.541535113373094 28.517393879661633 18.541535113373094C28.64518838541979 18.541535113373094 28.74752382948394 18.439199669308945 28.74752382948394 18.311280364228757C28.74752382948394 18.183336099284165 28.64518838541979 18.081000655220016 28.517393879661633 18.081000655220016ZM16.107998253527622 4.972279548161775C16.107998253527622 6.2459065492011305 17.139988807253552 7.277872143062657 18.41361580829291 7.277872143062657C19.687242809332265 7.277872143062657 20.719233363058194 6.2459065492011305 20.719233363058194 4.972279548161775C20.719233363058194 3.6986525471224208 19.687242809332265 2.666661993396488 18.41361580829291 2.666661993396488C17.139988807253552 2.666661993396488 16.107998253527622 3.6986525471224208 16.107998253527622 4.972279548161775ZM19.81800753895472 2.6069579977375987C20.0738711089795 2.5984217241107843 20.272876107887665 2.3852120663692307 20.261519369582984 2.129348496344451C20.252983095956168 1.873487422306112 20.039775934201053 1.6744824233979503 19.786757788718546 1.6858541376212737C19.530894218693767 1.6943829232887662 19.331889219785605 1.9076025649760826 19.343245958090286 2.163463639014422C19.3517822317171 2.419327209039201 19.564989393472214 2.615494271364413 19.81800753895472 2.6069579977375987ZM18.854257254514494 1.114425497899266C18.982201519459085 1.114425497899266 19.084536963523234 1.0120800698893542 19.084536963523234 0.8841482848769643C19.084536963523234 0.7562164998645745 18.982201519459085 0.6538735678411033 18.854257254514494 0.6538735678411033C18.726337949434306 0.6538735678411033 18.624002505370154 0.7562164998645745 18.624002505370154 0.8841482848769643C18.624002505370154 1.0120800698893542 18.726337949434306 1.114425497899266 18.854257254514494 1.114425497899266ZM16.58278479425646 3.198282145377542C16.71070409933665 3.198282145377542 16.813039543400798 3.0959467013133923 16.813039543400798 2.968002436368799C16.813039543400798 2.840083131288613 16.71070409933665 2.7377476872244633 16.58278479425646 2.7377476872244633C16.45484052931187 2.7377476872244633 16.352505085247717 2.840083131288613 16.352505085247717 2.968002436368799C16.352505085247717 3.0959467013133923 16.45484052931187 3.198282145377542 16.58278479425646 3.198282145377542ZM16.03409209502178 6.584212551358565C16.162011400101967 6.584212551358565 16.26437180403052 6.481877107294416 16.26437180403052 6.353932842349823C16.26437180403052 6.226013537269636 16.162011400101967 6.12365313334108 16.03409209502178 6.12365313334108C15.906147830077188 6.12365313334108 15.803812386013037 6.226013537269636 15.803812386013037 6.353932842349823C15.803812386013037 6.481877107294416 15.906147830077188 6.584212551358565 16.03409209502178 6.584212551358565ZM15.277883083116528 4.301333433067043C15.786764798623816 4.301333433067043 16.198976959287087 3.8891212724037683 16.198976959287087 3.3802395568964805C16.198976959287087 2.8713578413891927 15.786764798623816 2.4591282088208337 15.277883083116528 2.4591282088208337C14.768976407744834 2.4591282088208337 14.356764247081557 2.8713578413891927 14.356764247081557 3.3802395568964805C14.356764247081557 3.8891212724037683 14.768976407744834 4.301333433067043 15.277883083116528 4.301333433067043ZM13.924634114622382 3.5081588619766673C14.052578379566976 3.5081588619766673 14.154913823631126 3.405823417912518 14.154913823631126 3.277879152967925C14.154913823631126 3.1499598478877386 14.052578379566976 3.047624403823589 13.924634114622382 3.047624403823589C13.796714809542195 3.047624403823589 13.69435440561364 3.1499598478877386 13.69435440561364 3.277879152967925C13.69435440561364 3.405823417912518 13.796714809542195 3.5081588619766673 13.924634114622382 3.5081588619766673ZM13.810916972389148 4.588471713192404C14.066780542413927 4.588471713192404 14.271476390406633 4.3837758651996985 14.271476390406633 4.127937255039325C14.271476390406633 3.872073685014545 14.063935117871656 3.6673778370218404 13.810916972389148 3.6673778370218404C13.55789882690664 3.6673778370218404 13.350357554371662 3.8748941496924107 13.350357554371662 4.127937255039325C13.350357554371662 4.380955400521833 13.55789882690664 4.588471713192404 13.810916972389148 4.588471713192404ZM16.37808894626376 7.738431561080142C16.645309254593215 7.738431561080142 16.86423222529728 7.519533550240485 16.86423222529728 7.25228828204662C16.86423222529728 6.98506797371716 16.645309254593215 6.766169962877504 16.37808894626376 6.766169962877504C16.11084367806989 6.766169962877504 15.891945667230235 6.98506797371716 15.891945667230235 7.25228828204662C15.891945667230235 7.519533550240485 16.11084367806989 7.738431561080142 16.37808894626376 7.738431561080142ZM15.823705397944533 5.043340282125345C15.823705397944533 4.776119973795885 15.604807387104875 4.557197003091822 15.337562118911011 4.557197003091822C15.070341810581551 4.557197003091822 14.851443799741896 4.773274549253613 14.851443799741896 5.043340282125345C14.851443799741896 5.313430974861482 15.067496386039279 5.529483561158867 15.337562118911011 5.529483561158867C15.607652811647148 5.529483561158867 15.823705397944533 5.310585550319209 15.823705397944533 5.043340282125345ZM16.921090796413896 7.8464578542288335C16.921090796413896 8.048308277679267 17.085975660679207 8.213193141944577 17.29067150867191 8.213193141944577C17.49534239680021 8.213193141944577 17.657406796387654 8.048308277679267 17.657406796387654 7.8464578542288335C17.657406796387654 7.644632390642807 17.49249697225794 7.476877141970819 17.29067150867191 7.476877141970819C17.08882108522148 7.476877141970819 16.921090796413896 7.641786966100534 16.921090796413896 7.8464578542288335ZM12.380941380711297 3.2522952919518877C12.889823096218585 3.2522952919518877 13.30203525688186 2.840083131288613 13.30203525688186 2.3311964238084437C13.30203525688186 1.8223147083011562 12.889823096218585 1.4100900677056778 12.380941380711297 1.4100900677056778C11.87205966520401 1.4100900677056778 11.456977120134058 1.8223147083011562 11.456977120134058 2.3311964238084437C11.456977120134058 2.840083131288613 11.869214240661737 3.2522952919518877 12.380941380711297 3.2522952919518877ZM11.107289419807536 1.4527339960431411C11.360332525154451 1.4442052103756484 11.559337524062613 1.2309855686883322 11.550801250435798 0.9751219986635525C11.542264976808983 0.722101357194604 11.32905781505387 0.5230988542728826 11.07319424502909 0.5316276399403753C10.82017609954658 0.5401564256078679 10.621171100638419 0.7533735713087436 10.629682414400829 1.0092371413335233C10.638218688027642 1.262257782802472 10.851450809647163 1.4612627817106338 11.107289419807536 1.4527339960431411ZM10.36246210607137 0.4605544260446032C10.490381411151557 0.4605544260446032 10.592741815080112 0.3582089980346914 10.592741815080112 0.23027671382501347C10.592741815080112 0.10234517841126776 10.490381411151557 0 10.36246210607137 0C10.234517841126777 0 10.132182397062627 0.10234517841126776 10.132182397062627 0.23027671382501347C10.132182397062627 0.3582089980346914 10.234517841126777 0.4605544260446032 10.36246210607137 0.4605544260446032ZM9.702897689145724 4.966588699077232C10.46764297467779 4.966588699077232 11.087396407876042 4.346835265878981 11.087396407876042 3.5849354048891855C11.087396407876042 2.8230105840349835 10.46764297467779 2.200421710240223 9.702897689145724 2.200421710240223C8.938152403613655 2.200421710240223 8.321244394957677 2.820190119357118 8.321244394957677 3.5849354048891855C8.321244394957677 4.349680690421253 8.940997828155927 4.966588699077232 9.702897689145724 4.966588699077232ZM8.693670531757961 1.9132884220877444C8.821589836838148 1.9132884220877444 8.9239252809023 1.8109429940778325 8.9239252809023 1.6830112090654428C8.9239252809023 1.555079424053053 8.821589836838148 1.4527339960431411 8.693670531757961 1.4527339960431411C8.56572626681337 1.4527339960431411 8.46339082274922 1.555079424053053 8.46339082274922 1.6830112090654428C8.46339082274922 1.8109429940778325 8.56572626681337 1.9132884220877444 8.693670531757961 1.9132884220877444ZM7.897650536125314 3.724236408138458C8.0255698412055 3.724236408138458 8.127930245134056 3.6218760042099025 8.127930245134056 3.493956699129716C8.127930245134056 3.366012434185123 8.0255698412055 3.2636769901209735 7.897650536125314 3.2636769901209735C7.769706271180722 3.2636769901209735 7.667370827116573 3.366012434185123 7.667370827116573 3.493956699129716C7.667370827116573 3.6218760042099025 7.769706271180722 3.724236408138458 7.897650536125314 3.724236408138458ZM4.35819200418366 5.828003539453312C4.35819200418366 7.073201254934358 5.367444121435828 8.079582987779848 6.609796412374602 8.079582987779848C7.852148703313377 8.079582987779848 8.861400820565544 7.070355830392087 8.861400820565544 5.828003539453312C8.861400820565544 4.585626288650132 7.852148703313377 3.5763991312623706 6.609796412374602 3.5763991312623706C5.367444121435828 3.5763991312623706 4.35819200418366 4.585626288650132 4.35819200418366 5.828003539453312ZM4.639639435224478 3.8493102886763735C4.892682540571392 3.8493102886763735 5.100198853241962 3.641793976005803 5.100198853241962 3.388775830523295C5.100198853241962 3.135732725176381 4.892682540571392 2.9282164125058103 4.639639435224478 2.9282164125058103C4.38662128974197 2.9282164125058103 4.1791049770713995 3.135732725176381 4.1791049770713995 3.388775830523295C4.1791049770713995 3.641793976005803 4.38662128974197 3.8493102886763735 4.639639435224478 3.8493102886763735ZM3.948825268062657 7.573546696814832C4.204688838087437 7.573546696814832 4.409384686080142 7.366005424279855 4.409384686080142 7.1129872787973465C4.409384686080142 6.85996913331484 4.201843413545165 6.652452820644268 3.948825268062657 6.652452820644268C3.6958071225801494 6.652452820644268 3.488265850045173 6.85996913331484 3.488265850045173 7.1129872787973465C3.488265850045173 7.366005424279855 3.6958071225801494 7.573546696814832 3.948825268062657 7.573546696814832ZM1.5493935669413912 7.72422939823319C1.5493935669413912 8.233111113740478 1.9616182075368693 8.645323274403752 2.470499923044157 8.645323274403752C2.9793841345378853 8.645323274403752 3.3915962952011607 8.233111113740478 3.3915962952011607 7.72422939823319C3.3915962952011607 7.215347682725903 2.9793841345378853 6.8031105621982215 2.470499923044157 6.8031105621982215C1.9616182075368693 6.8031105621982215 1.5493935669413912 7.215347682725903 1.5493935669413912 7.72422939823319ZM16.824421241569887 28.65392433796185C16.417874970126746 28.65392433796185 16.088105241596125 28.98364414676366 16.088105241596125 29.39024033793561C16.088105241596125 29.7965869304635 16.417874970126746 30.126556337909367 16.824421241569887 30.126556337909367C17.230967513013024 30.126556337909367 17.560737241543645 29.7965869304635 17.560737241543645 29.39024033793561C17.560737241543645 28.98364414676366 17.230967513013024 28.65392433796185 16.824421241569887 28.65392433796185ZM1.8251576368569868 6.154927843441661C2.081018710895326 6.154927843441661 2.2857095669151493 5.947386570906684 2.2857095669151493 5.694368425424177C2.2857095669151493 5.441350279941668 2.078175782339495 5.2338339672710985 1.8251576368569868 5.2338339672710985C1.5721369953880382 5.2338339672710985 1.3646032108123838 5.441350279941668 1.3646032108123838 5.694368425424177C1.3646032108123838 5.947386570906684 1.5721369953880382 6.154927843441661 1.8251576368569868 6.154927843441661ZM1.9644611360927002 4.5685787012609085C2.0923904251186496 4.5685787012609085 2.1947358531285612 4.466243257196759 2.1947358531285612 4.338298992252167C2.1947358531285612 4.21037968717198 2.0923904251186496 4.108019283243425 1.9644611360927002 4.108019283243425C1.8365293510803105 4.108019283243425 1.7341839230703986 4.21037968717198 1.7341839230703986 4.338298992252167C1.7341839230703986 4.466243257196759 1.8365293510803105 4.5685787012609085 1.9644611360927002 4.5685787012609085ZM1.0433522840034937 9.464081706510166C1.1883416403508689 9.464081706510166 1.3077446396957662 9.344698675056794 1.3077446396957662 9.199706822722977C1.3077446396957662 9.054714970389162 1.1883416403508689 8.935306979071383 1.0433522840034937 8.935306979071383C0.8983629276561187 8.935306979071383 0.7789599283112216 9.054714970389162 0.7789599283112216 9.199706822722977C0.7789599283112216 9.344698675056794 0.8983629276561187 9.464081706510166 1.0433522840034937 9.464081706510166ZM0.9211063561027658 13.157043404548045C0.9211063561027658 12.901179834523264 0.7135725715271113 12.696483986530561 0.4605544260446032 12.696483986530561C0.20753353497701046 12.696483986530561 0 12.904025259065536 0 13.157043404548045C0 13.410061550030553 0.20753353497701046 13.617602822565528 0.4605544260446032 13.617602822565528C0.7135725715271113 13.617602822565528 0.9211063561027658 13.410061550030553 0.9211063561027658 13.157043404548045ZM0.6737715717454789 19.431379239307482C0.42075342626297085 19.431379239307482 0.21321914249002819 19.63892051184246 0.21321914249002819 19.891938657324967C0.21321914249002819 20.144956802807478 0.42075342626297085 20.35249807534245 0.6737715717454789 20.35249807534245C0.9267922132144276 20.35249807534245 1.1343259977900821 20.144956802807478 1.1343259977900821 19.891938657324967C1.1343259977900821 19.63892051184246 0.9267922132144276 19.431379239307482 0.6737715717454789 19.431379239307482ZM2.6723528424810308 20.025548811489696C2.163463639014422 20.025548811489696 1.751241494405384 20.437785932017377 1.751241494405384 20.946667647524666C1.751241494405384 21.455549363031952 2.163463639014422 21.86776152369523 2.6723528424810308 21.86776152369523C3.1812345579883186 21.86776152369523 3.5962921431938653 21.455549363031952 3.5962921431938653 20.946667647524666C3.5962921431938653 20.437785932017377 3.1840799825305903 20.025548811489696 2.6723528424810308 20.025548811489696ZM2.442070637485848 23.320500511711252C2.3141388524734583 23.320500511711252 2.2117934244635467 23.4228359557754 2.2117934244635467 23.550780220719997C2.2117934244635467 23.67869952580018 2.3141388524734583 23.781059929728734 2.442070637485848 23.781059929728734C2.5699924385524757 23.781059929728734 2.6723528424810308 23.67869952580018 2.6723528424810308 23.550780220719997C2.6723528424810308 23.4228359557754 2.5699924385524757 23.320500511711252 2.442070637485848 23.320500511711252ZM4.628282696919798 21.193994943922633C4.119400981412511 21.193994943922633 3.707163860884829 21.606207104585906 3.707163860884829 22.11508882009319C3.707163860884829 22.623995495464886 4.119400981412511 23.039053080670435 4.628282696919798 23.039053080670435C5.137164412427086 23.039053080670435 5.549376573090361 22.623995495464886 5.549376573090361 22.11508882009319C5.549376573090361 21.606207104585906 5.137164412427086 21.193994943922633 4.628282696919798 21.193994943922633ZM4.915420977045158 23.439908503029027C4.66240283156265 23.439908503029027 4.454861559027673 23.647449775564006 4.454861559027673 23.900467921046513C4.454861559027673 24.153486066529023 4.66240283156265 24.361002379199594 4.915420977045158 24.361002379199594C5.1684391225276665 24.361002379199594 5.375980395062642 24.153486066529023 5.375980395062642 23.900467921046513C5.375980395062642 23.647449775564006 5.1684391225276665 23.439908503029027 4.915420977045158 23.439908503029027ZM4.96089784999269 20.08525280714859C4.96089784999269 20.773246509632543 5.518126822854186 21.330450522629633 6.206095565473736 21.330450522629633C6.894089267957691 21.330450522629633 7.451293280954782 20.773246509632543 7.451293280954782 20.08525280714859C7.451293280954782 19.397259104664634 6.894089267957691 18.84005509166754 6.206095565473736 18.84005509166754C5.518126822854186 18.84005509166754 4.96089784999269 19.397259104664634 4.96089784999269 20.08525280714859ZM6.646761971559726 8.568571691355642C6.646761971559726 8.440627426411048 6.54440156763117 8.338291982346897 6.416482262550984 8.338291982346897C6.288537997606391 8.338291982346897 6.186202553542241 8.440627426411048 6.186202553542241 8.568571691355642C6.186202553542241 8.696490996435829 6.288537997606391 8.798851400364384 6.416482262550984 8.798851400364384C6.54440156763117 8.798851400364384 6.646761971559726 8.696490996435829 6.646761971559726 8.568571691355642ZM12.795998965916844 6.888398418873147C12.795998965916844 7.01634268381774 12.898334409980993 7.11867812788189 13.026278674925585 7.11867812788189C13.154197980005772 7.11867812788189 13.256558383934328 7.01634268381774 13.256558383934328 6.888398418873147C13.256558383934328 6.760479113792961 13.154197980005772 6.6581187098644055 13.026278674925585 6.6581187098644055C12.898334409980993 6.6581187098644055 12.795998965916844 6.760479113792961 12.795998965916844 6.888398418873147ZM14.5870439560903 4.864253255013083C14.5870439560903 4.7363089900684905 14.484683552161746 4.6339735460043405 14.356764247081557 4.6339735460043405C14.228819982136965 4.6339735460043405 14.126484538072816 4.7363089900684905 14.126484538072816 4.864253255013083C14.126484538072816 4.9921725600932705 14.228819982136965 5.094508004157419 14.356764247081557 5.094508004157419C14.484683552161746 5.094508004157419 14.5870439560903 4.9921725600932705 14.5870439560903 4.864253255013083ZM14.831525827945995 8.130750709811922C14.831525827945995 8.258694974756514 14.93388623187455 8.361030418820665 15.061805536954736 8.361030418820665C15.189749801899328 8.361030418820665 15.292085245963479 8.258694974756514 15.292085245963479 8.130750709811922C15.292085245963479 8.002831404731737 15.189749801899328 7.900495960667586 15.061805536954736 7.900495960667586C14.93388623187455 7.900495960667586 14.831525827945995 8.002831404731737 14.831525827945995 8.130750709811922ZM6.126498557883353 18.595573219811847C6.297074271233205 18.595573219811847 6.436375274482478 18.45624725669817 6.436375274482478 18.285671543348315C6.436375274482478 18.11509582999846 6.297074271233205 17.97579482674919 6.126498557883353 17.97579482674919C5.955922844533498 17.97579482674919 5.816621841284226 18.11509582999846 5.816621841284226 18.285671543348315C5.816621841284226 18.45624725669817 5.955922844533498 18.595573219811847 6.126498557883353 18.595573219811847ZM5.970149967244857 9.051869545846891C5.970149967244857 8.287124260314824 5.350371574182199 7.667370827116573 4.585626288650132 7.667370827116573C3.8208810031180644 7.667370827116573 3.201127569919813 8.287124260314824 3.201127569919813 9.051869545846891C3.201127569919813 9.816614831378958 3.8208810031180644 10.43352284003494 4.585626288650132 10.43352284003494C5.350371574182199 10.43352284003494 5.970149967244857 9.813769406836686 5.970149967244857 9.051869545846891ZM0.5344705684962062 14.680868086392042C0.5344705684962062 15.189749801899328 0.9466927131052438 15.601961962562605 1.455576924598972 15.601961962562605C1.9644611360927002 15.601961962562605 2.3766832807017377 15.189749801899328 2.3766832807017377 14.680868086392042C2.3766832807017377 14.171961411020348 1.9644611360927002 13.759749250357071 1.455576924598972 13.759749250357071C0.9466927131052438 13.759749250357071 0.5344705684962062 14.171961411020348 0.5344705684962062 14.680868086392042ZM2.8173446948148464 14.58419853154803C2.8173446948148464 14.840062101572808 3.024861007485417 15.044757949565513 3.277879152967925 15.044757949565513C3.530922258314839 15.044757949565513 3.7384385709854095 14.840062101572808 3.7384385709854095 14.58419853154803C3.7384385709854095 14.32833496152325 3.530922258314839 14.123639113530544 3.277879152967925 14.123639113530544C3.024861007485417 14.123639113530544 2.8173446948148464 14.33118038606552 2.8173446948148464 14.58419853154803ZM5.185486709916889 10.894082258052423C5.185486709916889 10.766162952972236 5.08315126585274 10.66380254904368 4.955207000908146 10.66380254904368C4.82728769582796 10.66380254904368 4.724927291899404 10.766162952972236 4.724927291899404 10.894082258052423C4.724927291899404 11.02200156313261 4.82728769582796 11.124361967061166 4.955207000908146 11.124361967061166C5.08315126585274 11.124361967061166 5.185486709916889 11.02200156313261 5.185486709916889 10.894082258052423ZM4.338298992252167 14.783203530456191C4.594162562276946 14.783203530456191 4.79885841026965 14.575662257921215 4.79885841026965 14.322644112438706C4.79885841026965 14.069625966956199 4.591317137734674 13.862084694421222 4.338298992252167 13.862084694421222C4.085280846769659 13.862084694421222 3.877739574234682 14.069625966956199 3.877739574234682 14.322644112438706C3.877739574234682 14.575662257921215 4.085280846769659 14.783203530456191 4.338298992252167 14.783203530456191ZM4.747690688237577 15.329050805148603C4.875609993317763 15.329050805148603 4.9779703972463185 15.226690401220047 4.9779703972463185 15.098771096139858C4.9779703972463185 14.970826831195266 4.875609993317763 14.868491387131117 4.747690688237577 14.868491387131117C4.619746423292984 14.868491387131117 4.517410979228834 14.970826831195266 4.517410979228834 15.098771096139858C4.517410979228834 15.226690401220047 4.619746423292984 15.329050805148603 4.747690688237577 15.329050805148603ZM3.7725587056282612 20.338270952631095C3.7725587056282612 20.591289098113606 3.9800999781632376 20.798830370648577 4.233118123645746 20.798830370648577C4.486136269128254 20.798830370648577 4.69367754166323 20.591289098113606 4.69367754166323 20.338270952631095C4.69367754166323 20.08525280714859 4.486136269128254 19.87771153461361 4.233118123645746 19.87771153461361C3.9800999781632376 19.87771153461361 3.7725587056282612 20.08525280714859 3.7725587056282612 20.338270952631095ZM3.43994355255537 19.718517519432844C4.69367754166323 19.718517519432844 5.7114409726778055 18.700754088418268 5.7114409726778055 17.447020099310407C5.7114409726778055 16.19328611020255 4.69367754166323 15.175522679187972 3.43994355255537 15.175522679187972C2.1862070674610683 15.175522679187972 1.1684411404600528 16.19328611020255 1.1684411404600528 17.447020099310407C1.1684411404600528 18.700754088418268 2.1862070674610683 19.718517519432844 3.43994355255537 19.718517519432844ZM3.024861007485417 9.520940277626785C3.024861007485417 9.265076707602004 2.8173446948148464 9.060405819473706 2.5643265493323386 9.060405819473706C2.3112959239176276 9.060405819473706 2.103762139341973 9.267922132144276 2.103762139341973 9.520940277626785C2.103762139341973 9.773983382973698 2.3112959239176276 9.981499695644269 2.5643265493323386 9.981499695644269C2.8173446948148464 9.981499695644269 3.024861007485417 9.773983382973698 3.024861007485417 9.520940277626785ZM4.8244422712856885 12.150661671702554C4.8244422712856885 11.132898240687979 3.999992990094732 10.305603534954752 2.9793841345378853 10.305603534954752C1.9587752789810384 10.305603534954752 1.1343259977900821 11.132898240687979 1.1343259977900821 12.150661671702554C1.1343259977900821 13.16842510271713 1.9587752789810384 13.995719808450357 2.9793841345378853 13.995719808450357C3.999992990094732 13.995719808450357 4.8244422712856885 13.16842510271713 4.8244422712856885 12.150661671702554ZM10.129336972520356 23.550780220719997C10.129336972520356 22.3197846680859 9.120109815132594 21.32191424900282 7.877732564329414 21.32191424900282C6.6353802733906395 21.32191424900282 5.626153116002879 22.3197846680859 5.626153116002879 23.550780220719997C5.626153116002879 24.781750813489683 6.6353802733906395 25.782541536708255 7.877732564329414 25.782541536708255C9.120109815132594 25.782541536708255 10.129336972520356 24.784596238031952 10.129336972520356 23.550780220719997ZM8.196145554555354 26.67810147159159C8.196145554555354 26.422013262787157 7.988604282020378 26.21734237465886 7.73558613653787 26.21734237465886C7.482567991055362 26.21734237465886 7.275051678384791 26.425008446515864 7.275051678384791 26.67810147159159C7.275051678384791 26.93094489802326 7.482567991055362 27.13861096988026 7.73558613653787 27.13861096988026C7.988604282020378 27.13861096988026 8.196145554555354 26.93094489802326 8.196145554555354 26.67810147159159ZM8.466236247291492 28.039662074932895C8.338291982346897 28.039662074932895 8.23595653828275 28.141997518997044 8.23595653828275 28.270041623399262C8.23595653828275 28.39808572780148 8.338291982346897 28.503166756950275 8.466236247291492 28.503166756950275C8.594155552371678 28.503166756950275 8.696490996435829 28.39808572780148 8.696490996435829 28.270041623399262C8.696490996435829 28.141997518997044 8.594155552371678 28.039662074932895 8.466236247291492 28.039662074932895ZM9.293505993160315 25.691438031626753C9.037642423135534 25.691438031626753 8.832971535007236 25.89910410348376 8.832971535007236 26.151947529915425C8.832971535007236 26.405040554991153 9.040487847677806 26.61270662684816 9.293505993160315 26.61270662684816C9.546524138642821 26.61270662684816 9.754065411177798 26.405040554991153 9.754065411177798 26.151947529915425C9.754065411177798 25.89910410348376 9.546524138642821 25.691438031626753 9.293505993160315 25.691438031626753ZM12.682281823683608 25.449826544177736C12.682281823683608 24.685106218510075 12.062528390485356 24.068198209854096 11.29778310495329 24.068198209854096C10.533037819421223 24.068198209854096 9.916104850900837 24.687951643052347 9.916104850900837 25.449826544177736C9.916104850900837 26.211851204489562 10.535883243963495 26.834350222772464 11.29778310495329 26.834350222772464C12.059682965943084 26.834350222772464 12.682281823683608 26.21459678957421 12.682281823683608 25.449826544177736ZM11.414345671728796 29.063266114218447C11.286401406784204 29.063266114218447 11.184065962720053 29.165601558282596 11.184065962720053 29.293396064040756C11.184065962720053 29.421440168442974 11.286401406784204 29.52377561250712 11.414345671728796 29.52377561250712C11.542264976808983 29.52377561250712 11.644625380737539 29.421440168442974 11.644625380737539 29.293396064040756C11.644625380737539 29.165601558282596 11.542264976808983 29.063266114218447 11.414345671728796 29.063266114218447ZM12.051146692316271 26.87977717599118C11.798128546833762 26.87977717599118 11.590587274298787 27.08744324784819 11.590587274298787 27.340286674279856C11.590587274298787 27.59337969935558 11.798128546833762 27.803791356297236 12.051146692316271 27.803791356297236C12.304164837798778 27.803791356297236 12.511706110333755 27.596374883084287 12.511706110333755 27.340286674279856C12.511706110333755 27.08444806411948 12.304164837798778 26.87977717599118 12.051146692316271 26.87977717599118ZM13.100184833431426 28.51165311084828C12.847166687948919 28.51165311084828 12.639625415413942 28.716323998976577 12.639625415413942 28.97216260913695C12.639625415413942 29.228001219297322 12.847166687948919 29.432672107425624 13.100184833431426 29.432672107425624C13.353202978913934 29.432672107425624 13.560744251448911 29.225255634212676 13.560744251448911 28.97216260913695C13.560744251448911 28.719319182705284 13.353202978913934 28.51165311084828 13.100184833431426 28.51165311084828ZM12.07957597787458 4.056851561211349C11.317676116884783 4.056851561211349 10.697922683686533 4.676604994409601 10.697922683686533 5.4385048553993975C10.697922683686533 6.200404716389193 11.317676116884783 6.823028533994122 12.07957597787458 6.823028533994122C12.841475838864376 6.823028533994122 13.464074696604898 6.203250140931464 13.464074696604898 5.4385048553993975C13.464074696604898 4.67375956986733 12.844321263406647 4.056851561211349 12.07957597787458 4.056851561211349ZM14.135020811699631 25.802259829588905C13.370275526167564 25.802259829588905 12.750522092969312 26.422013262787157 12.750522092969312 27.18678350818363C12.750522092969312 27.951553753580104 13.370275526167564 28.568561601693705 14.135020811699631 28.568561601693705C14.899766097231698 28.568561601693705 15.516674105887677 27.948808168495454 15.516674105887677 27.18678350818363C15.516674105887677 26.425008446515864 14.896920672689427 25.802259829588905 14.135020811699631 25.802259829588905ZM15.192570266577196 28.98064896303495C15.064650961497009 28.98064896303495 14.96231551743286 29.082984407099104 14.96231551743286 29.21102851150132C14.96231551743286 29.339072615903536 15.064650961497009 29.441408059967685 15.192570266577196 29.441408059967685C15.320514531521788 29.441408059967685 15.422849975585937 29.339072615903536 15.422849975585937 29.21102851150132C15.422849975585937 29.082984407099104 15.320514531521788 28.98064896303495 15.192570266577196 28.98064896303495ZM15.843623369740431 28.52013946474628C15.71567910479584 28.52013946474628 15.61334366073169 28.62247490881043 15.61334366073169 28.750519013212646C15.61334366073169 28.878313518970803 15.71567910479584 28.98064896303495 15.843623369740431 28.98064896303495C15.97154267482062 28.98064896303495 16.073878118884767 28.878313518970803 16.073878118884767 28.750519013212646C16.073878118884767 28.62247490881043 15.97154267482062 28.52013946474628 15.843623369740431 28.52013946474628ZM16.12791622532352 27.419908641734644C15.872052655298742 27.419908641734644 15.667356807306037 27.62757471359165 15.667356807306037 27.880667738667373C15.667356807306037 28.133511165099044 15.874873119976606 28.341177236956046 16.12791622532352 28.341177236956046C16.380934370806028 28.341177236956046 16.588450683476598 28.133511165099044 16.588450683476598 27.880667738667373C16.588450683476598 27.62757471359165 16.380934370806028 27.419908641734644 16.12791622532352 27.419908641734644ZM16.241633367556755 26.302705110927C15.985769797531978 26.302705110927 15.781073949539271 26.51037118278401 15.781073949539271 26.763214609215673C15.781073949539271 27.0163076342914 15.988590262209842 27.223724107504346 16.241633367556755 27.223724107504346C16.494651513039265 27.223724107504346 16.702167825709836 27.0163076342914 16.702167825709836 26.763214609215673C16.702167825709836 26.51037118278401 16.494651513039265 26.302705110927 16.241633367556755 26.302705110927ZM16.852850527128194 8.673752559962061C16.852850527128194 8.26723124838333 16.523080798597572 7.937436559988303 16.116534527154435 7.937436559988303C15.709988255711297 7.937436559988303 15.380218527180675 8.26723124838333 15.380218527180675 8.673752559962061C15.380218527180675 9.080298831405202 15.709988255711297 9.410068559935821 16.116534527154435 9.410068559935821C16.523080798597572 9.410068559935821 16.852850527128194 9.080298831405202 16.852850527128194 8.673752559962061ZM15.65312968459468 6.695084269049529C15.65312968459468 6.095223847782772 15.166986405561158 5.60908056874925 14.567150944158806 5.60908056874925C13.96729052289205 5.60908056874925 13.481147243858526 6.095223847782772 13.481147243858526 6.695084269049529C13.481147243858526 7.294944690316286 13.96729052289205 7.781087969349808 14.567150944158806 7.781087969349808C15.166986405561158 7.781087969349808 15.65312968459468 7.294944690316286 15.65312968459468 6.695084269049529ZM9.779649272193835 5.415766418925632C9.375973385157375 5.415766418925632 9.049024121304619 5.742715682778385 9.049024121304619 6.146391569814846C9.049024121304619 6.550092416715713 9.375973385157375 6.8770416805684675 9.779649272193835 6.8770416805684675C10.183350119094703 6.8770416805684675 10.510299382947457 6.550092416715713 10.510299382947457 6.146391569814846C10.510299382947457 5.742715682778385 10.183350119094703 5.415766418925632 9.779649272193835 5.415766418925632ZM19.17267024474043 25.151306565883292C19.17267024474043 25.304809731979518 19.297769085142754 25.427113067568378 19.44845178656111 25.427113067568378C19.599109528115065 25.427113067568378 19.724208368517388 25.304809731979518 19.724208368517388 25.151306565883292C19.724208368517388 24.997803399787067 19.599109528115065 24.87272951924915 19.44845178656111 24.87272951924915C19.297769085142754 24.87272951924915 19.17267024474043 24.99505781470242 19.17267024474043 25.151306565883292ZM18.749076385908072 25.54642121942853C17.731312954893497 25.54642121942853 16.90401824916027 26.370845540755084 16.90401824916027 27.39145439631193C16.90401824916027 28.412063251868776 17.728467530351224 29.23374198811068 18.749076385908072 29.23374198811068C19.769685241464916 29.23374198811068 20.594134522655875 28.409317666784126 20.594134522655875 27.39145439631193C20.594134522655875 26.37384072448379 19.769685241464916 25.54642121942853 18.749076385908072 25.54642121942853ZM21.319093784324952 26.785928085825034C21.063230214300173 26.785928085825034 20.855688941765198 26.99359415768204 20.855688941765198 27.246687182757768C20.855688941765198 27.49953060918943 21.063230214300173 27.70719668104644 21.319093784324952 27.70719668104644C21.57495735434973 27.70719668104644 21.779628242478033 27.49953060918943 21.779628242478033 27.246687182757768C21.779628242478033 26.99359415768204 21.57211192980746 26.785928085825034 21.319093784324952 26.785928085825034ZM22.916799664810384 26.94816720446332C22.407917949303098 26.94816720446332 21.99286036409755 27.360254565804567 21.99286036409755 27.869186201040666C21.99286036409755 28.378117836276765 22.405072524760826 28.79320038134672 22.916799664810384 28.79320038134672C23.428526804859946 28.79320038134672 23.83791850084535 28.380863421361415 23.83791850084535 27.869186201040666C23.83791850084535 27.357508980719917 23.42568138031767 26.94816720446332 22.916799664810384 26.94816720446332ZM22.365286500897838 29.483839829457697C22.237342235953243 29.483839829457697 22.135006791889094 29.586424872165907 22.135006791889094 29.714219377924064C22.135006791889094 29.84226348232628 22.237342235953243 29.94459892639043 22.365286500897838 29.94459892639043C22.493205805978025 29.94459892639043 22.59556620990658 29.84226348232628 22.59556620990658 29.714219377924064C22.59556620990658 29.586424872165907 22.490360381435753 29.483839829457697 22.365286500897838 29.483839829457697ZM17.913270366412434 30.123561154180663C17.78532610146784 30.123561154180663 17.682990657403693 30.22589659824481 17.682990657403693 30.353940702647026C17.682990657403693 30.481735208405187 17.78532610146784 30.584070652469332 17.913270366412434 30.584070652469332C18.04118967149262 30.584070652469332 18.14352511555677 30.481735208405187 18.14352511555677 30.353940702647026C18.14352511555677 30.22589659824481 18.04118967149262 30.123561154180663 17.913270366412434 30.123561154180663ZM23.502457923230192 24.923897241281228C23.249439777747682 24.923897241281228 23.041898505212703 25.131338674358577 23.041898505212703 25.384431699434302C23.041898505212703 25.637524724510033 23.249439777747682 25.844941197722978 23.502457923230192 25.844941197722978C23.7554760687127 25.844941197722978 23.96299238138327 25.637524724510033 23.96299238138327 25.384431699434302C23.96299238138327 25.131338674358577 23.7554760687127 24.923897241281228 23.502457923230192 24.923897241281228ZM22.814464220746235 26.533084659393367C22.942383525826422 26.533084659393367 23.04474392975498 26.430749215329218 23.04474392975498 26.302705110927C23.04474392975498 26.174910605168844 22.942383525826422 26.072575161104695 22.814464220746235 26.072575161104695C22.686519955801643 26.072575161104695 22.58133908719522 26.174910605168844 22.58133908719522 26.302705110927C22.58133908719522 26.430749215329218 22.68369949112378 26.533084659393367 22.814464220746235 26.533084659393367ZM20.454833519406602 6.53304482932649C20.454833519406602 6.660964134406677 20.55716896347075 6.763324538335233 20.685113228415346 6.763324538335233C20.81303253349553 6.763324538335233 20.91823836196636 6.660964134406677 20.91823836196636 6.53304482932649C20.91823836196636 6.405100564381898 20.815877958037802 6.302765120317748 20.685113228415346 6.302765120317748C20.554348498792884 6.302765120317748 20.454833519406602 6.405100564381898 20.454833519406602 6.53304482932649ZM21.93031094389639 23.314809662626708C21.93031094389639 23.18689035754652 21.827975499832238 23.084529953617967 21.70003123488765 23.084529953617967C21.57211192980746 23.084529953617967 21.469751525878905 23.18689035754652 21.469751525878905 23.314809662626708C21.469751525878905 23.442753927571303 21.57211192980746 23.545089371635452 21.70003123488765 23.545089371635452C21.827975499832238 23.545089371635452 21.93031094389639 23.442753927571303 21.93031094389639 23.314809662626708ZM21.35034353456113 23.72989220769666C20.58559824902906 23.72989220769666 19.968690240373082 24.349645640894913 19.968690240373082 25.114365966562573C19.968690240373082 25.87913621195905 20.58844367357133 26.496144060072652 21.35034353456113 26.496144060072652C22.11226835541533 26.496144060072652 22.73202178861358 25.8763906268744 22.73202178861358 25.114365966562573C22.73202178861358 24.35249106543718 22.11226835541533 23.72989220769666 21.35034353456113 23.72989220769666ZM23.22667638140951 7.1129872787973465C23.354620646354103 7.1129872787973465 23.456956090418252 7.010651834733198 23.456956090418252 6.882707569788605C23.456956090418252 6.754788264708418 23.354620646354103 6.652452820644268 23.22667638140951 6.652452820644268C23.098757076329324 6.652452820644268 22.996396672400767 6.754788264708418 22.996396672400767 6.882707569788605C22.996396672400767 7.010651834733198 23.098757076329324 7.1129872787973465 23.22667638140951 7.1129872787973465ZM23.636068077394917 21.233805927650025C23.636068077394917 21.489669497674807 23.843609349929896 21.694340385803105 24.096627495412406 21.694340385803105C24.349645640894913 21.694340385803105 24.560007378107752 21.486824073132535 24.560007378107752 21.233805927650025C24.560007378107752 20.980787782167518 24.35249106543718 20.773246509632543 24.096627495412406 20.773246509632543C23.840763925387627 20.773246509632543 23.636068077394917 20.980787782167518 23.636068077394917 21.233805927650025ZM23.54224394709318 21.77393739339349C22.77749866156111 21.77393739339349 22.15774522836286 22.39371578645615 22.15774522836286 23.15846107198821C22.15774522836286 23.92320635752028 22.77749866156111 24.540114366176258 23.54224394709318 24.540114366176258C24.306989232625245 24.540114366176258 24.923897241281228 23.92036093297801 24.923897241281228 23.15846107198821C24.923897241281228 22.396561210998417 24.304143808082976 21.77393739339349 23.54224394709318 21.77393739339349ZM25.71714669196482 22.976503660469273C25.464053666889093 22.976503660469273 25.256637193676145 23.18119950846198 25.256637193676145 23.43706307848676C25.256637193676145 23.692926648511538 25.464053666889093 23.897622496504244 25.71714669196482 23.897622496504244C25.969990118396485 23.897622496504244 26.177656190253494 23.690081223969266 26.177656190253494 23.43706307848676C26.177656190253494 23.18404493300425 25.969990118396485 22.976503660469273 25.71714669196482 22.976503660469273ZM26.840090991585818 25.606324894002668C26.586997966510094 25.61481124790067 26.388067847195146 25.82796848992697 26.39655420109315 26.083807100087345C26.405040554991153 26.33690012516307 26.618197797017455 26.535830244478014 26.87129082209318 26.527343890580013C27.127129432253554 26.51885753668201 27.3260595515685 26.30545069601165 27.314827612585848 26.052607269579983C27.306341258687844 25.79676865941961 27.093184016661542 25.597588941460607 26.83709580785711 25.609070479087315M27.314827612585848 24.454826509501334C27.18678350818363 24.454826509501334 27.08444806411948 24.557161953565483 27.08444806411948 24.685106218510075C27.08444806411948 24.813025523590262 27.18678350818363 24.915385927518816 27.314827612585848 24.915385927518816C27.442622118344005 24.915385927518816 27.545207161052215 24.813025523590262 27.545207161052215 24.685106218510075C27.545207161052215 24.557161953565483 27.442622118344005 24.454826509501334 27.314827612585848 24.454826509501334ZM10.751935830260878 23.854966088234576C10.905463956221508 23.854966088234576 11.027692412217153 23.72989220769666 11.027692412217153 23.579209506278303C11.027692412217153 23.428526804859946 10.902618531679236 23.30060749977976 10.751935830260878 23.30060749977976C10.60125312884252 23.30060749977976 10.476179248304604 23.4228359557754 10.476179248304604 23.579209506278303C10.476179248304604 23.735558096916797 10.598407704300248 23.854966088234576 10.751935830260878 23.854966088234576ZM26.962394327174678 18.27716022958591C25.688692446542106 18.27716022958591 24.65667693295177 19.30912582344743 24.65667693295177 20.582777784351194C24.65667693295177 21.85640478539055 25.688692446542106 22.885524954709805 26.962394327174678 22.885524954709805C28.235846609163193 22.885524954709805 29.26793700234675 21.853559360848276 29.26793700234675 20.582777784351194C29.26793700234675 19.311971247989707 28.235846609163193 18.27716022958591 26.962394327174678 18.27716022958591ZM29.432672107425624 18.376650249107783C29.179828680993953 18.376650249107783 28.97216260913695 18.58419152164276 28.97216260913695 18.83720966712527C28.97216260913695 19.090227812607775 29.179828680993953 19.297769085142754 29.432672107425624 19.297769085142754C29.68576513250135 19.297769085142754 29.893431204358354 19.090227812607775 29.893431204358354 18.83720966712527C29.893431204358354 18.58419152164276 29.68576513250135 18.376650249107783 29.432672107425624 18.376650249107783ZM28.042657258661603 13.194008963733168C28.042657258661603 13.040480837772538 27.920353923072742 12.915406957234623 27.766850756976517 12.915406957234623C27.61334759088029 12.915406957234623 27.49104425529143 13.040480837772538 27.49104425529143 13.194008963733168C27.49104425529143 13.347537089693796 27.616093175964938 13.469765545689441 27.766850756976517 13.469765545689441C27.917608337988092 13.469765545689441 28.042657258661603 13.344691665151526 28.042657258661603 13.194008963733168ZM27.351768211906563 17.660252220929927C27.764105171891867 17.660252220929927 28.09956574950703 17.324766683450356 28.09956574950703 16.912554522787083C28.09956574950703 16.5003174022594 27.766850756976517 16.16485682464424 27.351768211906563 16.16485682464424C26.936685666836613 16.16485682464424 26.603970674306098 16.5003174022594 26.603970674306098 16.912554522787083C26.603970674306098 17.324766683450356 26.93943125192126 17.660252220929927 27.351768211906563 17.660252220929927ZM26.840090991585818 9.719945276534947C26.7120468871836 9.719945276534947 26.60971144311945 9.822305680463502 26.60971144311945 9.950224985543688C26.60971144311945 10.07816925048828 26.7120468871836 10.18050469455243 26.840090991585818 10.18050469455243C26.967885497343975 10.18050469455243 27.070220941408124 10.07816925048828 27.070220941408124 9.950224985543688C27.070220941408124 9.822305680463502 26.967885497343975 9.719945276534947 26.840090991585818 9.719945276534947ZM26.063839208562634 17.816600811568424C26.063839208562634 17.94452011664861 26.166174652626783 18.046880520577165 26.294218757029 18.046880520577165C26.422013262787157 18.046880520577165 26.524598305495367 17.94452011664861 26.524598305495367 17.816600811568424C26.524598305495367 17.688681506488233 26.422013262787157 17.58632110255968 26.294218757029 17.58632110255968C26.166174652626783 17.58632110255968 26.063839208562634 17.688681506488233 26.063839208562634 17.816600811568424ZM30.11782038536731 14.786048954998462C30.11782038536731 14.021303669466397 29.498066952169054 13.404395660810415 28.73629189050129 13.404395660810415C27.97426723018946 13.404395660810415 27.35451379699121 14.024149094008667 27.35451379699121 14.786048954998462C27.35451379699121 15.547948815988258 27.97426723018946 16.167702249186508 28.73629189050129 16.167702249186508C29.498066952169054 16.167702249186508 30.11782038536731 15.547948815988258 30.11782038536731 14.786048954998462ZM29.759646331142783 16.272883117792933C29.250714695906684 16.272883117792933 28.83862733456544 16.685120238320614 28.83862733456544 17.1940019538279C28.83862733456544 17.702883669335186 29.250714695906684 18.117941254540735 29.759646331142783 18.117941254540735C30.268577966378885 18.117941254540735 30.68091492636419 17.70572909387746 30.68091492636419 17.1940019538279C30.68091492636419 16.68227481377834 30.268577966378885 16.272883117792933 29.759646331142783 16.272883117792933ZM30.942494305337913 18.140704650878906C30.68940128026219 18.149215964641314 30.48747597721854 18.362448086260834 30.498957514845248 18.618311656285613C30.507443868743252 18.871329801768123 30.720601110769554 19.073180225218557 30.97643972092993 19.06179852704947C31.229532746005653 19.053262253422655 31.428462865320597 18.84005509166754 31.419976511422593 18.58419152164276C31.41149015752459 18.33117337616025 31.198332915498288 18.12932295270982 30.945239890422563 18.137859226336634M31.33760895888316 19.47688107211942C31.20956485448094 19.47688107211942 31.107229410416792 19.57921651618357 31.107229410416792 19.707135821263755C31.107229410416792 19.83508008620835 31.20956485448094 19.9374155302725 31.33760895888316 19.9374155302725C31.465403464641312 19.9374155302725 31.567738908705465 19.83508008620835 31.567738908705465 19.707135821263755C31.567738908705465 19.57921651618357 31.465403464641312 19.47688107211942 31.33760895888316 19.47688107211942ZM31.678810305311675 13.068910123330845C31.425717280235947 13.077446396957662 31.226787160921006 13.29067851857718 31.235273514819006 13.546542088601958C31.24375986871701 13.799560234084467 31.45991229447202 13.998565232992629 31.712755720903687 13.990028959365816C31.965848745979407 13.981492685739001 32.16777404902306 13.768285523983888 32.15629251139635 13.512421953959107C32.14780615749835 13.2594038084766 31.93464891547205 13.060398809568438 31.678810305311675 13.068910123330845ZM27.218232937335053 8.878448407954767C27.218232937335053 8.52024939386584 26.942426435649967 8.227420264655935 26.601225089221447 8.227420264655935C26.26002374279293 8.227420264655935 25.987212424836553 8.517403969323567 25.987212424836553 8.878448407954767C25.987212424836553 9.239492846585968 26.26301892652164 9.529476551253598 26.601225089221447 9.529476551253598C26.93943125192126 9.529476551253598 27.218232937335053 9.239492846585968 27.218232937335053 8.878448407954767ZM25.418626713670374 8.395150553463516C25.418626713670374 8.523094818408108 25.520962157734527 8.625430262472259 25.648756663492684 8.625430262472259C25.776800767894898 8.625430262472259 25.87913621195905 8.523094818408108 25.87913621195905 8.395150553463516C25.87913621195905 8.26723124838333 25.776800767894898 8.164870844454775 25.648756663492684 8.164870844454775C25.520962157734527 8.164870844454775 25.418626713670374 8.26723124838333 25.418626713670374 8.395150553463516ZM22.982194509553818 5.887682575247795C22.982194509553818 5.378800859740508 22.569957389026136 4.966588699077232 22.06107567351885 4.966588699077232C21.552193958011557 4.966588699077232 21.139981797348284 5.378800859740508 21.139981797348284 5.887682575247795C21.139981797348284 6.396589250619489 21.552193958011557 6.808801411282764 22.06107567351885 6.808801411282764C22.569957389026136 6.808801411282764 22.982194509553818 6.396589250619489 22.982194509553818 5.887682575247795ZM7.93174571090376 20.443451821237517C7.761169997553908 20.443451821237517 7.621868994304635 20.582777784351194 7.621868994304635 20.75335349770105C7.621868994304635 20.9239292110509 7.761169997553908 21.063230214300173 7.93174571090376 21.063230214300173C8.102321424253613 21.063230214300173 8.24164738736729 20.9239292110509 8.24164738736729 20.75335349770105C8.24164738736729 20.582777784351194 8.102321424253613 20.443451821237517 7.93174571090376 20.443451821237517ZM10.695077259144261 28.318463760346688C11.030537836759425 28.318463760346688 11.303473954037832 28.04540284374625 11.303473954037832 27.709942266131087C11.303473954037832 27.374481688515925 11.030537836759425 27.09867518683084 10.695077259144261 27.09867518683084C10.359616681529097 27.09867518683084 10.08668056425069 27.371736103431275 10.08668056425069 27.709942266131087C10.08668056425069 28.048398027474956 10.359616681529097 28.318463760346688 10.695077259144261 28.318463760346688Z" fill="#C4003E"></path><path d="M109.47521327745434 14.362430136301695C109.84486886930557 14.703581563001402 110.2399835228508 14.976492720415404 110.66355242181876 15.181188568408109C111.08712132078672 15.385884416400813 111.58482101704017 15.488219860464964 112.15889789837564 15.488219860464964C112.54003502785359 15.488219860464964 112.87250042174004 15.431361289348345 113.15105250850976 15.314823682437243C113.42985419392357 15.198261115661737 113.65998414374587 15.044732989701108 113.83620078645146 14.85426426441976C114.0126670278011 14.663795539138412 114.14345671728796 14.44487256843435 114.2258242698274 14.200390696578657C114.30819182236684 13.955883864858556 114.34812760541625 13.70286571937605 114.34812760541625 13.444156724808998C114.34812760541625 13.2394858366807 114.30819182236684 13.020562865976636 114.2258242698274 12.7903081168323C114.14345671728796 12.557182983281287 114.01541261288575 12.34679628620404 113.83620078645146 12.15632756092269C113.65998414374587 11.965858835641344 113.42685901019486 11.809485285138441 113.13982056952712 11.684386444736122C112.85253253021533 11.562157988740477 112.50584001361752 11.499608568539317 112.09649823736092 11.499608568539317C111.74106976822104 11.499608568539317 111.41409554450388 11.53657412772444 111.11282998112479 11.613325710772552C110.81131481910164 11.687231869278394 110.52702196351855 11.781055999580134 110.25421064556217 11.889082292728828L108.9038819812035 10.885545984425608L110.02957186590916 4.827262735963554H116.9891308582035V7.405791448142844H112.05656245431149L111.66718856957961 9.472593020272576C111.7637832448304 9.432806996409585 111.93725430245134 9.392996012682191 112.19034732752706 9.35887587803934C112.44319075395872 9.324780703260894 112.69902936411911 9.307708156007266 112.95786315800818 9.307708156007266C113.58610294510443 9.307708156007266 114.16617019389733 9.404377710851277 114.69781530574278 9.594846436132624C115.22946041758824 9.785315161413973 115.68996991587692 10.061096703234652 116.07934380060881 10.424986566408124C116.46896728398474 10.786031005039325 116.7674872622792 11.221006562040772 116.9806445043055 11.724197428463517C117.19105616124713 12.230233719428533 117.29888277548059 12.795974006052438 117.29888277548059 13.424263712877504C117.29888277548059 14.052553419702571 117.19954251514515 14.623984555411019 117.00335798091486 15.18403399295038C116.8044278615999 15.744083430489741 116.4971719307634 16.23591755860781 116.08233898433751 16.6566659928979C115.66725643926756 17.080259851730258 115.14110249759139 17.418565853887692 114.50712194168177 17.668763534692335C113.87314138577219 17.921781680174846 113.1198526780024 18.046855560712757 112.2442606346438 18.046855560712757C111.26059237840765 18.046855560712757 110.42194093436976 17.893352394616535 109.72531111880136 17.58629614269527C109.02893090187702 17.27926485063842 108.42340459139012 16.88694570190664 107.90324101717138 16.409338696499933L109.47820846118304 14.362430136301695H109.47521327745434Z" fill="#C4003E"></path><path d="M125.1083251507955 10.675134327483955H130.0408935546875V16.224510900574312C129.37571316827052 16.801632885367308 128.5967158001627 17.24511975613116 127.70964221917737 17.55784189727256C126.81982305310738 17.870564038413956 125.80495496636388 18.02693758891686 124.66778354403154 18.02693758891686C123.61872044305197 18.02693758891686 122.68047914003456 17.86489814919382 121.85605481870802 17.537948885341066C121.03163049738146 17.211024581352717 120.32950951164376 16.753310587877504 119.75518303166423 16.164806904915427C119.17811096660006 15.576328181817756 118.74031494492075 14.871286891944578 118.43879978289759 14.052528459838163C118.1375342195185 13.233770027731751 117.98677663850692 12.332569163492682 117.98677663850692 11.34605548271428C117.98677663850692 10.359566761800286 118.14602057341651 9.498151921424206 118.4672540283203 8.676548064775522C118.78574189813946 7.857789632669108 119.24051062761478 7.144212069169116 119.82906423030568 6.535840334139951C120.41761783299656 5.927443639246379 121.1139980499209 5.449836633839671 121.92144966345145 5.105839782597693C122.72890127698199 4.7589975068134445 123.62446121186532 4.588421793463591 124.60812946810145 4.588421793463591C125.77375513585652 4.588421793463591 126.79436399141336 4.801653915083111 127.66995603477199 5.230938623000014C128.54554807813062 5.660223330916919 129.27337772420637 6.257238327641404 129.84745460554186 7.024829037715743L127.88885404561167 8.88693476185277C127.47951226935506 8.400791482819248 127.02748912496439 8.002781485002924 126.5355301975243 7.695750192946069C126.04382086872825 7.388718900889215 125.43829455824135 7.2351907749285855 124.72169685114825 7.2351907749285855C124.13339284710142 7.2351907749285855 123.60723890542526 7.343217068077278 123.14672940713659 7.562140038781339C122.68621990884792 7.781038049620996 122.29684602411602 8.073867178830898 121.97536297056816 8.44626835576678C121.65412951566435 8.818694492567065 121.41251802821533 9.253670049568512 121.24478773940777 9.751195026771121C121.07705745060018 10.251540468651593 120.99468989806074 10.780315196090376 120.99468989806074 11.343210058172009C120.99468989806074 11.957297602150124 121.09128457331154 12.514501615147216 121.28172833872847 13.012026592349821C121.47516728787413 13.512372034230296 121.7424874356612 13.935965893062658 122.08917995225902 14.288499017931448C122.43612206750089 14.641007182935835 122.83972307494413 14.911097875671972 123.30871892713081 15.104412025495591C123.77496919423284 15.297726175319209 124.28390082946895 15.391550305620951 124.83551383283911 15.391550305620951C125.34719105315986 15.391550305620951 125.81344132026189 15.331846309962062 126.23701021922984 15.20959289410201C126.6605791181978 15.087339478241962 127.03597547886238 14.894025328418344 127.36844087274885 14.623959595546612V13.012026592349821H125.10258438198213V10.669443478399412L125.1083251507955 10.675134327483955Z" fill="#C4003E"></path></svg> 